# xmcd
#
# Track frame offsets: 
#        150
#        24835
#        47115
#        71155
#        96738
#        123192
#        142912
#        162286
#        181068
#        209561
#        234738
#        261787
#
# Disc length: 3739 seconds
#
# Revision: 0
# Processed by: cddbd v1.5.2PL0 Copyright (c) Steve Scherf et al.
# Submitted via: ExactAudioCopy v1.1
#
DISCID=aa0e990c
DTITLE=ジャー・パンファン  - 二胡 II LOVERS
DYEAR=2004
DGENRE=New Age
TTITLE0=LOVERS
TTITLE1=LIGHT DANCE
TTITLE2=空山鳥語
TTITLE3=NIGHT SKY
TTITLE4=睡蓮
TTITLE5=IN THE GARDEN
TTITLE6=東方花園
TTITLE7=明天的孫子
TTITLE8=RIVER
TTITLE9=二泉映月
TTITLE10=懐郷曲
TTITLE11=デボラのテーマ
EXTD=YEAR: 2004
EXTT0=
EXTT1=
EXTT2=
EXTT3=
EXTT4=
EXTT5=
EXTT6=
EXTT7=
EXTT8=
EXTT9=
EXTT10=
EXTT11=
PLAYORDER=
